<?xml version="1.0" encoding="UTF-8" standalone="no"?><!DOCTYPE svg PUBLIC "-//W3C//DTD SVG 1.1//EN" "http://www.w3.org/Graphics/SVG/1.1/DTD/svg11.dtd"><svg width="130" height="33.201031" viewBox="0 0 142 61" version="1.1" xmlns="http://www.w3.org/2000/svg" xmlns:xlink="http://www.w3.org/1999/xlink" xml:space="preserve" xmlns:serif="http://www.serif.com/" style="fill-rule:evenodd;clip-rule:evenodd;stroke-linejoin:round;stroke-miterlimit:2;"><g transform="matrix(1.57056,0,0,1.57056,-470.075,-501.45)"><g transform="matrix(44.57,0,0,44.57,387.77,354.574)"></g><text x="301.973px" y="354.574px" style="font-family:'Folio-BoldCondensed', 'Folio';font-stretch:condensed;font-size:44.57px;fill:#b91024;">ACME</text><path d="M331.895,329.3c-0.122,-0.074 -0.262,-0.105 -0.417,-0.105c-0.107,-0 -0.25,0.027 -0.317,0.041c-0.018,0.057 -0.045,0.15 -0.056,0.221c-0.033,0.197 -0.047,0.428 -0.047,0.693l-0,17.026c-0,0.264 0.014,0.495 0.047,0.692c0.011,0.071 0.038,0.165 0.056,0.222c0.067,0.014 0.21,0.041 0.317,0.041c0.155,-0 0.295,-0.031 0.417,-0.105c0.002,-0.016 0.003,-0.034 0.003,-0.048l0,-7.157l9.054,0l0,6.889c0,3.087 -0.816,5.286 -2.273,6.655c-1.425,1.341 -3.807,2.107 -7.201,2.107c-3.394,-0 -5.776,-0.766 -7.201,-2.107c-1.457,-1.369 -2.273,-3.568 -2.273,-6.655l-0,-18.095c-0,-3.086 0.816,-5.285 2.273,-6.655c1.425,-1.34 3.807,-2.106 7.201,-2.106c3.394,-0 5.776,0.766 7.201,2.106c1.457,1.37 2.273,3.569 2.273,6.655l0,5.775l-9.054,0l0,-6.042c0,-0.014 -0.001,-0.033 -0.003,-0.048Zm-8.618,0.315l0,18.095c0,2.645 0.624,4.554 1.872,5.728c1.248,1.173 3.358,1.76 6.329,1.76c2.971,0 5.081,-0.587 6.329,-1.76c1.248,-1.174 1.872,-3.083 1.872,-5.728l-0,-5.615l-6.507,-0l-0,5.883c-0,0.475 -0.171,0.832 -0.513,1.07c-0.342,0.237 -0.735,0.356 -1.181,0.356c-0.594,0 -1.025,-0.156 -1.293,-0.468c-0.267,-0.312 -0.401,-0.899 -0.401,-1.76l0,-17.026c0,-0.862 0.134,-1.449 0.401,-1.761c0.268,-0.312 0.699,-0.468 1.293,-0.468c0.446,0 0.839,0.119 1.181,0.357c0.342,0.238 0.513,0.594 0.513,1.07l-0,4.769l6.507,-0l-0,-4.502c-0,-2.644 -0.624,-4.554 -1.872,-5.727c-1.248,-1.174 -3.358,-1.761 -6.329,-1.761c-2.971,0 -5.081,0.587 -6.329,1.761c-1.248,1.173 -1.872,3.083 -1.872,5.727Zm32.777,8.277l1.972,-16.414l12.744,-0l-0,34.37l-8.698,-0l-0,-11.71l-1.728,11.71l-8.661,-0l-1.728,-11.71l0,11.71l-8.697,-0l-0,-34.37l12.737,-0l2.059,16.414Zm-0.018,10.086l-3.165,-25.227l-10.34,0l0,31.823l6.151,0l-0,-27.187l0.089,-0l4.011,27.187l6.463,0l4.011,-27.187l0.089,-0l0,27.187l6.151,0l0,-31.823l-10.34,0l-3.031,25.227l-0.089,-0Zm-49.568,-26.5l10.798,-0l5.825,34.37l-9.351,-0l-0.758,-5.616l-2.257,-0l-0.669,5.616l-9.413,-0l5.825,-34.37Zm-4.317,33.096l6.774,0l0.669,-5.616l4.502,0l0.757,5.616l6.73,0l-5.393,-31.823l-8.646,0l-5.393,31.823Zm8.112,-11.41l1.649,-15.064l0.089,-0l1.381,15.064l-3.119,0Zm1.585,-2.784l-0.165,1.511l0.304,-0l-0.139,-1.511Zm76.036,-18.902l0,8.341l-6.863,-0l-0,3.96l6.551,0l0,8.341l-6.551,0l-0,5.387l6.863,-0l0,8.341l-15.917,-0l-0,-34.37l15.917,-0Zm-14.644,1.273l-0,31.823l13.371,0l-0,-5.794l-6.864,0l0,-7.933l6.552,-0l-0,-5.794l-6.552,-0l0,-6.508l6.864,0l-0,-5.794l-13.371,0Z" style="fill:#fcfdfc;"/></g></svg>
