<?xml version="1.0" encoding="UTF-8" standalone="no"?><!DOCTYPE svg PUBLIC "-//W3C//DTD SVG 1.1//EN" "http://www.w3.org/Graphics/SVG/1.1/DTD/svg11.dtd"><svg width="100%" height="100%" viewBox="0 0 400 61" version="1.1" xmlns="http://www.w3.org/2000/svg" xmlns:xlink="http://www.w3.org/1999/xlink" xml:space="preserve" xmlns:serif="http://www.serif.com/" style="fill-rule:evenodd;clip-rule:evenodd;stroke-linejoin:round;stroke-miterlimit:2;"><g transform="matrix(1.57056,0,0,1.57056,-470.075,-501.45)"><g transform="matrix(44.57,0,0,44.57,301.973,354.574)"><path d="M0.004,-0.714l0.151,0l0.059,0.558l0.002,-0l0.063,-0.558l0.164,0l0.065,0.559l0.002,-0l0.057,-0.559l0.151,0l-0.11,0.714l-0.184,-0l-0.062,-0.546l-0.002,0l-0.062,0.546l-0.184,-0l-0.11,-0.714Z" style="fill:#b91024;fill-rule:nonzero;"/></g><g transform="matrix(44.57,0,0,44.57,334.152,354.574)"><path d="M0.044,-0.714l0.3,0l0,0.13l-0.154,0l0,0.146l0.147,-0l0,0.13l-0.147,-0l0,0.178l0.154,-0l0,0.13l-0.3,-0l0,-0.714Z" style="fill:#b91024;fill-rule:nonzero;"/></g><g transform="matrix(44.57,0,0,44.57,350.643,354.574)"><path d="M0.044,-0l0,-0.714l0.146,0l0,0.584l0.154,0l0,0.13l-0.3,-0Z" style="fill:#b91024;fill-rule:nonzero;"/></g><g transform="matrix(44.57,0,0,44.57,366.332,354.574)"><path d="M0.112,-0.584l-0.108,0l-0,-0.13l0.362,0l0,0.13l-0.108,0l0,0.584l-0.146,-0l-0,-0.584Z" style="fill:#b91024;fill-rule:nonzero;"/></g><g transform="matrix(44.57,0,0,44.57,382.822,354.574)"><path d="M0.246,-0.499l0,-0.04c0,-0.039 -0.014,-0.059 -0.042,-0.059c-0.015,0 -0.026,0.005 -0.033,0.014c-0.006,0.009 -0.009,0.024 -0.009,0.045c0,0.021 0.006,0.039 0.017,0.054c0.011,0.015 0.025,0.029 0.042,0.043c0.017,0.013 0.036,0.027 0.056,0.042c0.02,0.014 0.038,0.031 0.055,0.051c0.017,0.019 0.032,0.043 0.043,0.07c0.011,0.027 0.017,0.059 0.017,0.098c0,0.037 -0.003,0.069 -0.01,0.094c-0.006,0.025 -0.016,0.045 -0.031,0.06c-0.015,0.015 -0.034,0.025 -0.058,0.031c-0.024,0.007 -0.054,0.01 -0.09,0.01c-0.033,0 -0.062,-0.003 -0.086,-0.009c-0.023,-0.005 -0.043,-0.014 -0.058,-0.027c-0.015,-0.013 -0.026,-0.031 -0.033,-0.053c-0.007,-0.022 -0.01,-0.05 -0.01,-0.083l0,-0.067l0.146,0l0,0.05c0,0.039 0.014,0.059 0.042,0.059c0.015,0 0.026,-0.004 0.032,-0.013c0.007,-0.009 0.01,-0.025 0.01,-0.046c0,-0.025 -0.006,-0.045 -0.018,-0.062c-0.011,-0.017 -0.026,-0.033 -0.043,-0.047c-0.017,-0.014 -0.035,-0.028 -0.055,-0.042c-0.019,-0.015 -0.038,-0.032 -0.055,-0.051c-0.017,-0.019 -0.031,-0.042 -0.042,-0.069c-0.011,-0.027 -0.017,-0.06 -0.017,-0.1c0,-0.032 0.003,-0.059 0.009,-0.082c0.007,-0.023 0.017,-0.042 0.032,-0.057c0.015,-0.015 0.035,-0.025 0.058,-0.032c0.024,-0.007 0.054,-0.011 0.089,-0.011c0.062,0 0.108,0.013 0.138,0.039c0.031,0.026 0.046,0.071 0.046,0.134l0,0.056l-0.142,0Z" style="fill:#b91024;fill-rule:nonzero;"/></g><g transform="matrix(44.57,0,0,44.57,400.962,354.574)"><path d="M0.034,-0.56c0,-0.033 0.004,-0.061 0.011,-0.082c0.008,-0.022 0.02,-0.039 0.035,-0.052c0.015,-0.013 0.035,-0.021 0.058,-0.026c0.024,-0.005 0.052,-0.008 0.084,-0.008c0.032,0 0.06,0.003 0.083,0.008c0.024,0.005 0.044,0.013 0.059,0.026c0.015,0.013 0.027,0.03 0.034,0.052c0.008,0.021 0.012,0.049 0.012,0.082l0,0.406c-0,0.033 -0.004,0.061 -0.012,0.083c-0.007,0.021 -0.019,0.038 -0.034,0.051c-0.015,0.013 -0.035,0.021 -0.059,0.026c-0.023,0.005 -0.051,0.008 -0.083,0.008c-0.032,0 -0.06,-0.003 -0.084,-0.008c-0.023,-0.005 -0.043,-0.013 -0.058,-0.026c-0.015,-0.013 -0.027,-0.03 -0.035,-0.051c-0.007,-0.022 -0.011,-0.05 -0.011,-0.083l0,-0.406Zm0.146,0.405c0,0.014 0.003,0.024 0.009,0.03c0.007,0.006 0.018,0.009 0.033,0.009c0.015,0 0.026,-0.003 0.032,-0.009c0.007,-0.006 0.01,-0.016 0.01,-0.03l0,-0.404c0,-0.014 -0.003,-0.024 -0.01,-0.03c-0.006,-0.006 -0.017,-0.009 -0.032,-0.009c-0.015,0 -0.026,0.003 -0.033,0.009c-0.006,0.006 -0.009,0.016 -0.009,0.03l0,0.404Z" style="fill:#b91024;fill-rule:nonzero;"/></g><g transform="matrix(44.57,0,0,44.57,420.752,354.574)"><path d="M0.022,-0l0,-0.13l0.175,-0.454l-0.17,0l0,-0.13l0.335,0l0,0.13l-0.182,0.454l0.199,0l0,0.13l-0.357,0Z" style="fill:#b91024;fill-rule:nonzero;"/></g><g transform="matrix(44.57,0,0,44.57,438.089,354.574)"><rect x="0.048" y="-0.714" width="0.146" height="0.714" style="fill:#b91024;fill-rule:nonzero;"/></g><g transform="matrix(44.57,0,0,44.57,448.831,354.574)"><path d="M0.186,-0.256l0.07,0l-0.031,-0.338l-0.002,0l-0.037,0.338Zm-0.182,0.256l0.121,-0.714l0.194,0l0.121,0.714l-0.151,-0l-0.017,-0.126l-0.101,0l-0.015,0.126l-0.152,-0Z" style="fill:#b91024;fill-rule:nonzero;"/></g><g transform="matrix(44.57,0,0,44.57,468.62,354.574)"><path d="M0.044,-0l0,-0.714l0.146,0l0,0.584l0.154,0l0,0.13l-0.3,-0Z" style="fill:#b91024;fill-rule:nonzero;"/></g><g transform="matrix(44.57,0,0,44.57,484.308,354.574)"><path d="M0.186,-0.256l0.07,0l-0.031,-0.338l-0.002,0l-0.037,0.338Zm-0.182,0.256l0.121,-0.714l0.194,0l0.121,0.714l-0.151,-0l-0.017,-0.126l-0.101,0l-0.015,0.126l-0.152,-0Z" style="fill:#b91024;fill-rule:nonzero;"/></g><g transform="matrix(44.57,0,0,44.57,504.097,354.574)"><path d="M0.343,-0.148l0.002,0l0.068,-0.566l0.232,0l0,0.714l-0.138,0l0,-0.61l-0.002,0l-0.09,0.61l-0.145,0l-0.09,-0.61l-0.002,0l-0,0.61l-0.138,0l-0,-0.714l0.232,0l0.071,0.566Z" style="fill:#b91024;fill-rule:nonzero;"/></g><g transform="matrix(44.57,0,0,44.57,534.628,354.574)"><path d="M0.112,-0.584l-0.108,0l-0,-0.13l0.362,0l0,0.13l-0.108,0l0,0.584l-0.146,-0l-0,-0.584Z" style="fill:#b91024;fill-rule:nonzero;"/></g><path d="M311.595,336.311l1.675,-14.833l9.581,-0l1.728,14.857l1.515,-14.857l24.664,-0l-0,8.341c-0,-0 -6.864,-0 -6.864,-0l-0,3.96l6.552,0l-0,8.341l-6.552,0l-0,5.387l6.864,-0l-0,8.341l-15.918,-0l-0,-30.354l-4.677,30.354l-10.43,-0l-1.671,-14.715l-1.671,14.715l-10.43,-0l-5.295,-34.37l9.361,-0l1.568,14.833Zm24.518,-13.56l0,31.823l13.371,0l0,-5.794l-6.864,0l0,-7.933l6.552,-0l0,-5.794l-6.552,-0l0,-6.508l6.864,0l0,-5.794l-13.371,0Zm-33.962,0l4.903,31.823l8.2,0l2.764,-24.335l0.089,0l2.763,24.335l8.201,0l4.903,-31.823l-6.73,0l-2.541,24.915l-0.089,-0l-2.897,-24.915l-7.309,0l-2.808,24.87l-0.089,0l-2.63,-24.87l-6.73,0Zm145.858,30.101l5.317,-31.374l10.798,-0l5.183,30.585l0,-30.585l9.054,-0l0,26.029l6.032,-0l4.411,-26.029l10.798,-0l5.005,29.533l-0,-29.533l12.737,-0l2.059,16.414l1.972,-16.414l30.839,-0l-0,8.341c-0,-0 -4.814,-0 -4.814,-0l0,26.029l-9.054,-0l0,-26.029l-4.228,-0l0,26.029l-8.697,-0l-0,-11.71l-1.728,11.71l-8.661,-0l-1.728,-11.71l0,11.71l-17.228,-0l-0.758,-5.616c0,-0 -2.257,-0 -2.257,-0l-0.669,5.616l-31.794,-0l-0.758,-5.616c0,-0 -2.257,-0 -2.257,-0l-0.669,5.616l-17.959,-0l0,-34.37l9.054,-0l0,31.374Zm71.376,-4.874l-3.165,-25.227l-10.34,0l0,31.823l6.151,0l-0,-27.187l0.089,-0l4.011,27.187l6.463,0l4.011,-27.187l0.089,-0l0,27.187l6.151,0l-0,-31.823l-10.34,0l-3.031,25.227l-0.089,-0Zm20.235,-19.433l-0,26.029l6.507,0l-0,-26.029l4.813,0l0,-5.794l-16.134,0l0,5.794l4.814,0Zm-99.391,26.029l6.507,0l-0,-31.823l-6.507,0l-0,31.823Zm44.258,0l6.774,0l0.669,-5.616l4.501,0l0.758,5.616l6.73,0l-5.393,-31.823l-8.646,0l-5.393,31.823Zm8.111,-11.41l1.649,-15.064l0.09,-0l1.381,15.064l-3.12,0Zm1.586,-2.784l-0.165,1.511c-0,-0 0.304,-0 0.304,-0l-0.139,-1.511Zm-23.603,14.194l13.371,0l-0,-5.794l-6.864,0l-0,-26.029l-6.507,0l-0,31.823Zm-21.572,0l6.775,0l0.668,-5.616l4.502,0l0.757,5.616l6.73,0l-5.393,-31.823l-8.646,0l-5.393,31.823Zm8.112,-11.41l1.649,-15.064l0.089,-0l1.382,15.064l-3.12,0Zm1.585,-2.784l-0.165,1.511c0,-0 0.304,-0 0.304,-0l-0.139,-1.511Zm-74.788,-16.613c0.171,-0.224 0.356,-0.436 0.555,-0.634l0.01,-0.009c0.822,-0.787 1.854,-1.369 3.101,-1.727c1.169,-0.356 2.612,-0.543 4.331,-0.543c3.143,-0 5.456,0.728 6.977,2.043c1.271,1.079 2.101,2.751 2.387,5.052c0.088,-0.924 0.253,-1.727 0.489,-2.413l0.003,-0.011c0.442,-1.215 1.099,-2.164 1.946,-2.864c0.83,-0.686 1.871,-1.169 3.132,-1.423c1.146,-0.253 2.482,-0.384 4.008,-0.384c1.527,-0 2.847,0.131 3.958,0.383c1.296,0.254 2.352,0.739 3.182,1.424c0.852,0.703 1.495,1.656 1.904,2.871c0.396,1.065 0.609,2.424 0.609,4.083l-0,18.095c-0,0.253 -0.005,0.5 -0.015,0.739l7.181,-18.63l-6.995,-0l0,-8.341l17.478,-0l0,7.313c0,0 -7.502,18.716 -7.502,18.716l8.26,-0l-0,8.341l-18.458,-0l-0,-6.79c-0.085,1.069 -0.274,1.994 -0.557,2.776c-0.41,1.186 -1.051,2.125 -1.905,2.831c-0.828,0.684 -1.883,1.168 -3.174,1.422c-1.116,0.253 -2.438,0.385 -3.966,0.385c-1.526,-0 -2.861,-0.131 -4.001,-0.383c-1.265,-0.254 -2.307,-0.737 -3.139,-1.424c-0.846,-0.699 -1.5,-1.631 -1.95,-2.83l-0.007,-0.023c-0.193,-0.579 -0.338,-1.238 -0.432,-1.976c-0.067,0.416 -0.149,0.806 -0.244,1.17c-0.327,1.336 -0.902,2.413 -1.707,3.255l-0.01,0.01c-0.802,0.802 -1.851,1.383 -3.159,1.713c-1.159,0.319 -2.604,0.488 -4.338,0.488c-1.599,-0 -2.975,-0.149 -4.123,-0.435c-1.251,-0.287 -2.283,-0.782 -3.129,-1.481l-0.022,-0.02c-0.805,-0.732 -1.42,-1.694 -1.828,-2.918l-0.005,-0.017c-0.327,-1.079 -0.501,-2.434 -0.501,-4.069l0,-4.259l8.43,-0c-0.139,-0.128 -0.283,-0.252 -0.434,-0.374l-0.009,-0.008c-0.716,-0.601 -1.504,-1.202 -2.383,-1.817l-0.019,-0.015c-0.924,-0.701 -1.801,-1.513 -2.638,-2.447l-0.008,-0.009c-0.824,-0.956 -1.519,-2.091 -2.08,-3.409c-0.562,-1.322 -0.859,-2.972 -0.859,-4.955c0,-0.142 0.001,-0.282 0.004,-0.42l-3.162,-0l0,26.029l-9.054,-0l0,-26.029l-4.814,-0l0,-8.341l18.682,-0l-0,2.289Zm7.398,20.146l0,2.861c0,0.806 0.026,1.357 0.599,1.357c0.11,-0 0.21,-0.007 0.3,-0.026c0.03,-0.006 0.076,-0.022 0.096,-0.03c0.182,-0.264 0.202,-0.706 0.202,-1.301c0,-0.8 -0.172,-1.478 -0.579,-2.042l-0.015,-0.024c-0.181,-0.276 -0.382,-0.541 -0.603,-0.795Zm-19.993,-15.368l0,26.029l6.508,0l-0,-26.029l4.813,0l0,-5.794l-16.134,0l-0,5.794l4.813,0Zm22.464,3.789l6.329,-0l-0,-2.496c-0,-2.823 -0.684,-4.814 -2.051,-5.972c-1.337,-1.159 -3.387,-1.739 -6.15,-1.739c-1.575,0 -2.897,0.164 -3.967,0.491c-1.04,0.297 -1.902,0.772 -2.585,1.426c-0.654,0.653 -1.129,1.5 -1.426,2.54c-0.268,1.011 -0.401,2.229 -0.401,3.655c-0,1.783 0.252,3.268 0.757,4.457c0.505,1.189 1.129,2.214 1.872,3.075c0.773,0.862 1.59,1.62 2.452,2.273c0.891,0.624 1.708,1.248 2.451,1.872c0.772,0.624 1.411,1.323 1.916,2.095c0.535,0.743 0.803,1.664 0.803,2.763c-0,0.951 -0.149,1.635 -0.446,2.051c-0.267,0.386 -0.743,0.579 -1.426,0.579c-1.248,0 -1.872,-0.876 -1.872,-2.63l-0,-2.228l-6.507,-0l-0,2.986c-0,1.486 0.148,2.719 0.445,3.699c0.327,0.981 0.817,1.768 1.471,2.363c0.684,0.564 1.545,0.965 2.585,1.203c1.07,0.267 2.348,0.401 3.833,0.401c1.605,0 2.942,-0.148 4.011,-0.445c1.07,-0.268 1.932,-0.728 2.586,-1.382c0.653,-0.684 1.114,-1.575 1.381,-2.674c0.297,-1.129 0.446,-2.526 0.446,-4.19c-0,-1.723 -0.253,-3.179 -0.758,-4.368c-0.505,-1.218 -1.144,-2.258 -1.916,-3.12c-0.743,-0.891 -1.56,-1.649 -2.452,-2.273c-0.891,-0.653 -1.723,-1.277 -2.496,-1.872c-0.742,-0.624 -1.366,-1.263 -1.871,-1.916c-0.506,-0.684 -0.758,-1.486 -0.758,-2.407c-0,-0.951 0.134,-1.619 0.401,-2.006c0.297,-0.416 0.787,-0.624 1.471,-0.624c1.248,0 1.872,0.877 1.872,2.63l-0,1.783Zm8.691,-2.719l-0,18.095c-0,1.486 0.163,2.719 0.49,3.7c0.357,0.951 0.877,1.708 1.56,2.273c0.683,0.564 1.545,0.951 2.585,1.159c1.07,0.237 2.318,0.356 3.744,0.356c1.426,0 2.659,-0.119 3.699,-0.356c1.07,-0.208 1.947,-0.595 2.63,-1.159c0.683,-0.565 1.188,-1.322 1.515,-2.273c0.357,-0.981 0.535,-2.214 0.535,-3.7l0,-18.095c0,-1.486 -0.178,-2.704 -0.535,-3.655c-0.327,-0.98 -0.832,-1.753 -1.515,-2.317c-0.683,-0.565 -1.56,-0.951 -2.63,-1.159c-1.04,-0.238 -2.273,-0.357 -3.699,-0.357c-1.426,0 -2.674,0.119 -3.744,0.357c-1.04,0.208 -1.902,0.594 -2.585,1.159c-0.683,0.564 -1.203,1.337 -1.56,2.317c-0.327,0.951 -0.49,2.169 -0.49,3.655Zm6.507,18.051l0,-18.006c0,-0.624 0.134,-1.07 0.401,-1.337c0.297,-0.268 0.788,-0.402 1.471,-0.402c0.683,0 1.159,0.134 1.426,0.402c0.297,0.267 0.446,0.713 0.446,1.337l-0,18.006c-0,0.624 -0.149,1.07 -0.446,1.337c-0.267,0.267 -0.743,0.401 -1.426,0.401c-0.683,0 -1.174,-0.134 -1.471,-0.401c-0.267,-0.267 -0.401,-0.713 -0.401,-1.337Zm1.327,-18.443c-0.017,0.087 -0.054,0.286 -0.054,0.437l0,18.006c0,0.151 0.037,0.35 0.054,0.436c0.127,0.052 0.315,0.029 0.545,0.029c0.198,-0 0.456,-0.048 0.547,-0.066c0.015,-0.072 0.052,-0.259 0.052,-0.399l-0,-18.006c-0,-0.14 -0.037,-0.327 -0.052,-0.4c-0.091,-0.018 -0.349,-0.065 -0.547,-0.065c-0.23,-0 -0.418,-0.024 -0.545,0.028Zm11.42,25.351l15.912,0l-0,-5.794l-8.87,0l8.112,-20.235l-0,-5.794l-14.931,0l-0,5.794l7.577,0l-7.8,20.235l0,5.794Zm-29.219,-21.583l0,-2.44c0,-0.805 -0.025,-1.356 -0.598,-1.356c-0.187,-0 -0.346,-0.024 -0.431,0.086c-0.162,0.246 -0.168,0.678 -0.168,1.27c0,0.626 0.161,1.174 0.503,1.643c0.209,0.268 0.44,0.534 0.694,0.797Zm8.691,10.168l0,-9.552l-8.049,0c0.102,0.092 0.208,0.184 0.316,0.275c0.756,0.581 1.569,1.191 2.434,1.826c0.973,0.682 1.866,1.507 2.675,2.475c0.857,0.959 1.569,2.111 2.128,3.459c0.2,0.468 0.365,0.974 0.496,1.517Zm-49.873,-21.681l9.054,-0l-0,26.029l6.863,-0l0,8.341l-15.917,-0l-0,-34.37Zm1.273,33.096l13.371,0l0,-5.794l-6.864,0l0,-26.029l-6.507,0l0,31.823Z" style="fill:#fcfdfc;"/></g></svg>