<?xml version="1.0" encoding="UTF-8" standalone="no"?><!DOCTYPE svg PUBLIC "-//W3C//DTD SVG 1.1//EN" "http://www.w3.org/Graphics/SVG/1.1/DTD/svg11.dtd"><svg class="Wsa-Logo-Live" width="100%" height="100%" viewBox="0 0 320 61" version="1.1" xmlns="http://www.w3.org/2000/svg" xmlns:xlink="http://www.w3.org/1999/xlink" xml:space="preserve" xmlns:serif="http://www.serif.com/" style="fill-rule:evenodd;clip-rule:evenodd;stroke-linejoin:round;stroke-miterlimit:2;"><g><g><path d="M1.889,10.258l8.562,0l3.345,31.638l0.114,-0l3.572,-31.638l9.298,0l3.686,31.694l0.113,0l3.232,-31.694l8.561,0l-6.237,40.483l-10.432,-0l-3.515,-30.958l-0.114,0l-3.515,30.958l-10.433,-0l-6.237,-40.483Z" style="fill:#b91024;fill-rule:nonzero;"/></g><g><path d="M45.093,10.258l17.01,0l-0,7.371l-8.732,-0l0,8.278l8.335,-0l-0,7.371l-8.335,-0l0,10.092l8.732,-0l-0,7.371l-17.01,-0l0,-40.483Z" style="fill:#b91024;fill-rule:nonzero;"/></g><g><path d="M66.072,50.741l-0,-40.483l8.278,0l-0,33.112l8.731,-0l0,7.371l-17.009,-0Z" style="fill:#b91024;fill-rule:nonzero;"/></g><g><path d="M89.885,17.629l-6.123,-0l0,-7.371l20.525,0l-0,7.371l-6.124,-0l0,33.112l-8.278,-0l0,-33.112Z" style="fill:#b91024;fill-rule:nonzero;"/></g><g><path d="M118.46,22.448l0,-2.268c0,-2.211 -0.793,-3.345 -2.381,-3.345c-0.85,0 -1.474,0.284 -1.871,0.794c-0.34,0.51 -0.51,1.361 -0.51,2.551c-0,1.191 0.34,2.211 0.964,3.062c0.623,0.85 1.417,1.644 2.381,2.438c0.964,0.737 2.041,1.531 3.175,2.381c1.134,0.794 2.155,1.758 3.118,2.892c0.964,1.077 1.815,2.438 2.438,3.969c0.624,1.531 0.964,3.345 0.964,5.556c0,2.098 -0.17,3.913 -0.567,5.33c-0.34,1.417 -0.907,2.551 -1.757,3.402c-0.851,0.85 -1.928,1.417 -3.289,1.758c-1.361,0.396 -3.062,0.567 -5.103,0.567c-1.871,-0 -3.515,-0.171 -4.876,-0.511c-1.304,-0.283 -2.438,-0.794 -3.288,-1.531c-0.851,-0.737 -1.474,-1.757 -1.871,-3.005c-0.397,-1.247 -0.567,-2.835 -0.567,-4.706l-0,-3.798l8.278,-0l-0,2.835c-0,2.211 0.793,3.345 2.381,3.345c0.851,-0 1.474,-0.227 1.814,-0.737c0.397,-0.511 0.567,-1.418 0.567,-2.608c0,-1.418 -0.34,-2.552 -1.02,-3.516c-0.624,-0.964 -1.474,-1.871 -2.438,-2.665c-0.964,-0.793 -1.985,-1.587 -3.119,-2.381c-1.077,-0.85 -2.154,-1.814 -3.118,-2.892c-0.964,-1.077 -1.758,-2.381 -2.381,-3.912c-0.624,-1.531 -0.964,-3.402 -0.964,-5.67c-0,-1.814 0.17,-3.345 0.51,-4.649c0.397,-1.304 0.964,-2.381 1.814,-3.232c0.851,-0.85 1.985,-1.417 3.289,-1.814c1.361,-0.397 3.062,-0.624 5.046,-0.624c3.515,0 6.123,0.737 7.824,2.211c1.758,1.475 2.609,4.026 2.609,7.598l-0,3.175l-8.052,0Z" style="fill:#b91024;fill-rule:nonzero;"/></g><g><path d="M129.517,18.99c-0,-1.871 0.226,-3.459 0.623,-4.65c0.454,-1.247 1.134,-2.211 1.985,-2.948c0.85,-0.737 1.984,-1.191 3.288,-1.474c1.361,-0.284 2.949,-0.454 4.763,-0.454c1.814,0 3.402,0.17 4.706,0.454c1.361,0.283 2.495,0.737 3.345,1.474c0.851,0.737 1.531,1.701 1.928,2.948c0.453,1.191 0.68,2.779 0.68,4.65l0,23.019c0,1.871 -0.227,3.459 -0.68,4.706c-0.397,1.191 -1.077,2.155 -1.928,2.892c-0.85,0.737 -1.984,1.19 -3.345,1.474c-1.304,0.283 -2.892,0.454 -4.706,0.454c-1.814,-0 -3.402,-0.171 -4.763,-0.454c-1.304,-0.284 -2.438,-0.737 -3.288,-1.474c-0.851,-0.737 -1.531,-1.701 -1.985,-2.892c-0.397,-1.247 -0.623,-2.835 -0.623,-4.706l-0,-23.019Zm8.278,22.962c-0,0.794 0.17,1.361 0.51,1.701c0.397,0.341 1.02,0.511 1.871,0.511c0.85,-0 1.474,-0.17 1.814,-0.511c0.397,-0.34 0.567,-0.907 0.567,-1.701l0,-22.906c0,-0.794 -0.17,-1.36 -0.567,-1.701c-0.34,-0.34 -0.964,-0.51 -1.814,-0.51c-0.851,0 -1.474,0.17 -1.871,0.51c-0.34,0.341 -0.51,0.907 -0.51,1.701l-0,22.906Z" style="fill:#b91024;fill-rule:nonzero;"/></g><g><path d="M154.012,50.741l-0,-7.371l9.922,-25.741l-9.639,-0l0,-7.371l18.994,0l0,7.371l-10.319,25.741l11.283,-0l-0,7.371l-20.241,-0Z" style="fill:#b91024;fill-rule:nonzero;"/></g><g><rect x="177.54" y="10.258" width="8.278" height="40.483" style="fill:#b91024;"/></g><g><path d="M199.03,36.226l3.969,-0l-1.758,-19.164l-0.113,-0l-2.098,19.164Zm-10.319,14.515l6.86,-40.483l11,0l6.86,40.483l-8.561,-0l-0.964,-7.144l-5.726,-0l-0.851,7.144l-8.618,-0Z" style="fill:#b91024;fill-rule:nonzero;"/></g><g><path d="M216.153,50.741l-0,-40.483l8.278,0l-0,33.112l8.731,-0l0,7.371l-17.009,-0Z" style="fill:#b91024;fill-rule:nonzero;"/></g><g><path d="M244.161,36.226l3.969,-0l-1.758,-19.164l-0.113,-0l-2.098,19.164Zm-10.319,14.515l6.861,-40.483l10.999,0l6.861,40.483l-8.562,-0l-0.964,-7.144l-5.726,-0l-0.851,7.144l-8.618,-0Z" style="fill:#b91024;fill-rule:nonzero;"/></g><g><path d="M278.237,42.349l0.113,0l3.856,-32.091l13.154,0l-0,40.483l-7.825,-0l0,-34.586l-0.113,-0l-5.103,34.586l-8.221,-0l-5.103,-34.586l-0.113,-0l-0,34.586l-7.825,-0l0,-40.483l13.154,0l4.026,32.091Z" style="fill:#b91024;fill-rule:nonzero;"/></g><g><path d="M303.979,17.629l-6.124,-0l0,-7.371l20.525,0l0,7.371l-6.123,-0l-0,33.112l-8.278,-0l-0,-33.112Z" style="fill:#b91024;fill-rule:nonzero;"/></g><path d="M13.903,27.508l2.131,-18.869l12.188,-0l2.198,18.899l1.928,-18.899l31.375,-0l0,10.61l-8.732,0l0,5.038l8.335,-0l0,10.611l-8.335,-0l0,6.853l8.732,-0l0,10.61l-20.249,0l-0,-38.614l-5.95,38.614l-13.268,0l-2.126,-18.719l-2.126,18.719l-13.268,0l-6.736,-43.722l11.908,-0l1.995,18.869Zm31.19,-17.25l-0,40.483l17.01,-0l-0,-7.371l-8.732,0l-0,-10.092l8.335,0l-0,-7.37l-8.335,-0l-0,-8.279l8.732,-0l-0,-7.371l-17.01,-0Zm-43.204,-0l6.237,40.483l10.432,-0l3.516,-30.957l0.113,-0l3.515,30.957l10.433,-0l6.237,-40.483l-8.562,-0l-3.232,31.695l-0.113,-0l-3.686,-31.695l-9.297,-0l-3.573,31.638l-0.113,-0l-3.346,-31.638l-8.561,-0Zm185.549,38.292l6.764,-39.911l13.737,-0l6.593,38.907l0,-38.907l11.518,-0l-0,33.112l7.673,-0l5.612,-33.112l13.736,-0l6.367,37.569l0,-37.569l16.203,-0l2.619,20.88l2.509,-20.88l39.231,-0l-0,10.61l-6.124,0l-0,33.112l-11.518,0l0,-33.112l-5.378,0l-0,33.112l-11.064,0l0,-14.896l-2.198,14.896l-11.018,0l-2.198,-14.896l-0,14.896l-21.916,0l-0.965,-7.144l-2.871,0l-0.851,7.144l-40.446,0l-0.964,-7.144l-2.871,0l-0.851,7.144l-22.846,0l-0,-43.722l11.517,-0l0,39.911Zm90.799,-6.2l-4.026,-32.092l-13.154,-0l0,40.483l7.825,-0l0,-34.585l0.113,-0l5.103,34.585l8.222,-0l5.102,-34.585l0.113,-0l0,34.585l7.825,-0l0,-40.483l-13.154,-0l-3.855,32.092l-0.114,-0Zm25.742,-24.721l-0,33.112l8.278,-0l-0,-33.112l6.122,-0l0,-7.371l-20.524,-0l-0,7.371l6.124,-0Zm-126.438,33.112l8.278,-0l0,-40.483l-8.278,-0l0,40.483Zm56.302,-0l8.617,-0l0.851,-7.144l5.726,-0l0.964,7.144l8.562,-0l-6.861,-40.483l-10.999,-0l-6.86,40.483Zm10.318,-14.515l2.098,-19.163l0.114,-0l1.757,19.163l-3.969,-0Zm2.018,-3.542l-0.21,1.922l0.387,0l-0.177,-1.922Zm-30.026,18.057l17.009,-0l0,-7.371l-8.732,0l0,-33.112l-8.277,-0l-0,40.483Zm-27.442,-0l8.618,-0l0.85,-7.144l5.727,-0l0.963,7.144l8.561,-0l-6.86,-40.483l-10.999,-0l-6.86,40.483Zm10.319,-14.515l2.098,-19.163l0.113,-0l1.758,19.163l-3.969,-0Zm2.016,-3.542l-0.21,1.922l0.387,0l-0.177,-1.922Zm-95.139,-21.134c0.217,-0.284 0.453,-0.554 0.706,-0.806l0.013,-0.012c1.045,-1.001 2.358,-1.741 3.944,-2.196c1.487,-0.453 3.323,-0.691 5.51,-0.691c3.998,-0 6.941,0.926 8.876,2.599c1.616,1.372 2.672,3.499 3.036,6.426c0.112,-1.175 0.322,-2.196 0.622,-3.069l0.004,-0.014c0.562,-1.546 1.398,-2.753 2.476,-3.644c1.055,-0.872 2.38,-1.487 3.984,-1.81c1.458,-0.322 3.157,-0.488 5.099,-0.488c1.942,-0 3.621,0.166 5.035,0.487c1.648,0.323 2.992,0.94 4.047,1.811c1.084,0.895 1.902,2.107 2.423,3.653c0.503,1.355 0.774,3.083 0.774,5.194l0,23.019c0,0.322 -0.006,0.636 -0.019,0.94l9.135,-23.7l-8.898,0l-0,-10.61l22.234,-0l0,9.303l-9.543,23.809l10.507,-0l0,10.61l-23.481,0l0,-8.637c-0.108,1.36 -0.348,2.536 -0.708,3.531c-0.522,1.509 -1.337,2.703 -2.424,3.602c-1.053,0.87 -2.395,1.485 -4.037,1.808c-1.42,0.322 -3.102,0.49 -5.045,0.49c-1.942,0 -3.64,-0.166 -5.09,-0.487c-1.609,-0.323 -2.935,-0.938 -3.993,-1.811c-1.077,-0.89 -1.909,-2.075 -2.481,-3.601l-0.009,-0.029c-0.246,-0.736 -0.43,-1.575 -0.55,-2.514c-0.085,0.53 -0.189,1.026 -0.31,1.489c-0.416,1.699 -1.147,3.069 -2.171,4.141l-0.013,0.012c-1.02,1.021 -2.355,1.76 -4.019,2.179c-1.474,0.406 -3.312,0.621 -5.518,0.621c-2.034,0 -3.785,-0.189 -5.245,-0.553c-1.592,-0.365 -2.905,-0.995 -3.981,-1.884l-0.028,-0.026c-1.024,-0.931 -1.806,-2.155 -2.325,-3.712l-0.007,-0.021c-0.416,-1.373 -0.637,-3.097 -0.637,-5.177l0,-5.418l10.724,0c-0.177,-0.162 -0.36,-0.32 -0.552,-0.475l-0.011,-0.01c-0.911,-0.765 -1.914,-1.53 -3.032,-2.312l-0.024,-0.019c-1.175,-0.892 -2.291,-1.925 -3.356,-3.113l-0.01,-0.011c-1.048,-1.216 -1.932,-2.66 -2.646,-4.337c-0.715,-1.682 -1.093,-3.781 -1.093,-6.303c0,-0.181 0.001,-0.359 0.005,-0.535l-4.022,0l-0,33.112l-11.518,0l-0,-33.112l-6.124,0l-0,-10.61l23.766,-0l-0,2.911Zm9.411,25.629l-0,3.639c-0,1.026 0.033,1.726 0.762,1.726c0.14,0 0.267,-0.008 0.382,-0.033c0.038,-0.007 0.096,-0.028 0.122,-0.038c0.231,-0.336 0.257,-0.898 0.257,-1.655c-0,-1.018 -0.219,-1.88 -0.737,-2.597l-0.019,-0.031c-0.23,-0.351 -0.486,-0.688 -0.767,-1.011Zm-25.434,-19.55l0,33.112l8.279,-0l0,-33.112l6.123,-0l0,-7.371l-20.524,-0l-0,7.371l6.122,-0Zm28.577,4.82l8.052,-0l-0,-3.175c-0,-3.592 -0.87,-6.124 -2.609,-7.598c-1.701,-1.474 -4.309,-2.212 -7.824,-2.212c-2.004,0 -3.685,0.209 -5.047,0.625c-1.323,0.378 -2.419,0.982 -3.288,1.814c-0.832,0.831 -1.436,1.908 -1.814,3.231c-0.341,1.286 -0.51,2.836 -0.51,4.65c-0,2.268 0.32,4.157 0.963,5.669c0.642,1.513 1.436,2.817 2.381,3.912c0.984,1.097 2.023,2.061 3.119,2.892c1.134,0.794 2.173,1.587 3.118,2.381c0.983,0.794 1.795,1.683 2.438,2.665c0.68,0.946 1.021,2.117 1.021,3.515c0,1.21 -0.189,2.08 -0.567,2.609c-0.34,0.491 -0.945,0.737 -1.814,0.737c-1.588,-0 -2.381,-1.115 -2.381,-3.346l-0,-2.834l-8.278,-0l-0,3.798c-0,1.891 0.188,3.459 0.566,4.706c0.416,1.248 1.039,2.249 1.871,3.006c0.87,0.718 1.966,1.228 3.289,1.53c1.361,0.34 2.987,0.511 4.876,0.511c2.041,-0 3.742,-0.189 5.102,-0.567c1.361,-0.34 2.458,-0.926 3.29,-1.758c0.831,-0.87 1.417,-2.003 1.757,-3.401c0.378,-1.436 0.567,-3.214 0.567,-5.33c0,-2.192 -0.322,-4.045 -0.964,-5.557c-0.643,-1.55 -1.456,-2.873 -2.438,-3.969c-0.945,-1.134 -1.984,-2.098 -3.119,-2.892c-1.133,-0.83 -2.192,-1.624 -3.175,-2.381c-0.944,-0.794 -1.738,-1.607 -2.38,-2.437c-0.644,-0.871 -0.964,-1.891 -0.964,-3.062c-0,-1.21 0.17,-2.06 0.51,-2.552c0.377,-0.53 1.001,-0.794 1.871,-0.794c1.588,-0 2.381,1.116 2.381,3.346l0,2.268Zm11.056,-3.459l0,23.019c0,1.89 0.208,3.459 0.624,4.707c0.454,1.21 1.115,2.173 1.984,2.891c0.869,0.718 1.966,1.21 3.289,1.475c1.361,0.301 2.948,0.453 4.763,0.453c1.814,-0 3.382,-0.152 4.705,-0.453c1.361,-0.265 2.477,-0.757 3.346,-1.475c0.869,-0.718 1.511,-1.681 1.927,-2.891c0.454,-1.248 0.681,-2.817 0.681,-4.707l-0,-23.019c-0,-1.891 -0.227,-3.44 -0.681,-4.65c-0.416,-1.246 -1.058,-2.23 -1.927,-2.947c-0.869,-0.719 -1.985,-1.21 -3.346,-1.475c-1.323,-0.302 -2.891,-0.454 -4.705,-0.454c-1.815,0 -3.402,0.152 -4.763,0.454c-1.323,0.265 -2.42,0.756 -3.289,1.475c-0.869,0.717 -1.53,1.701 -1.984,2.947c-0.416,1.21 -0.624,2.759 -0.624,4.65Zm8.278,22.963l0,-22.906c0,-0.794 0.171,-1.361 0.51,-1.701c0.378,-0.341 1.003,-0.511 1.872,-0.511c0.868,-0 1.474,0.17 1.814,0.511c0.377,0.34 0.567,0.907 0.567,1.701l-0,22.906c-0,0.794 -0.19,1.361 -0.567,1.701c-0.34,0.339 -0.946,0.51 -1.814,0.51c-0.869,-0 -1.494,-0.171 -1.872,-0.51c-0.339,-0.34 -0.51,-0.907 -0.51,-1.701Zm1.688,-23.462c-0.021,0.111 -0.068,0.364 -0.068,0.556l-0,22.906c-0,0.192 0.047,0.445 0.068,0.555c0.162,0.066 0.401,0.036 0.694,0.036c0.251,0 0.58,-0.061 0.695,-0.083c0.019,-0.092 0.067,-0.33 0.067,-0.508l-0,-22.906c-0,-0.178 -0.048,-0.416 -0.067,-0.509c-0.115,-0.023 -0.444,-0.082 -0.695,-0.082c-0.293,-0 -0.532,-0.031 -0.694,0.035Zm14.528,32.25l20.242,-0l-0,-7.371l-11.284,0l10.32,-25.741l-0,-7.371l-18.994,-0l-0,7.371l9.638,-0l-9.922,25.741l-0,7.371Zm-37.17,-27.456l-0,-3.104c-0,-1.025 -0.032,-1.725 -0.761,-1.725c-0.238,-0 -0.44,-0.031 -0.548,0.109c-0.206,0.313 -0.214,0.862 -0.214,1.616c-0,0.796 0.205,1.493 0.64,2.09c0.266,0.341 0.56,0.679 0.883,1.014Zm11.056,12.934l-0,-12.151l-10.24,0c0.13,0.117 0.265,0.234 0.402,0.35c0.962,0.739 1.996,1.515 3.097,2.323c1.237,0.867 2.374,1.917 3.403,3.148c1.09,1.22 1.996,2.686 2.707,4.401c0.254,0.595 0.464,1.239 0.631,1.929Zm-63.445,-27.58l11.518,-0l-0,33.112l8.73,-0l0,10.61l-20.248,0l0,-43.722Zm1.62,42.102l17.009,-0l0,-7.371l-8.732,0l0,-33.112l-8.277,-0l-0,40.483Z" style="fill:#fcfdfc;"/></g></svg>
